<svg width="347" height="157" viewBox="0 0 347 157" fill="none" xmlns="http://www.w3.org/2000/svg">
<rect x="25.25" y="34.1052" width="294.5" height="121.905" rx="1.75" fill="#B68A5A" stroke="black" stroke-width="0.5"/>
<rect x="29.25" y="110.171" width="286.5" height="45.8391" rx="1.75" fill="#B68A5A" stroke="black" stroke-width="0.5"/>
<rect x="29.25" y="88.0226" width="143.5" height="34.609" rx="1.75" fill="#B68A5A" stroke="black" stroke-width="0.5"/>
<rect x="40.25" y="4.01172" width="134.5" height="70.9719" rx="1.75" fill="#B68A5A" stroke="black" stroke-width="0.5"/>
<rect x="173.25" y="88.0226" width="141.5" height="34.609" rx="1.75" fill="#B68A5A" stroke="black" stroke-width="0.5"/>
<rect x="48.25" y="0.25" width="254.5" height="3.26168" rx="1.63084" fill="#B68A5A" stroke="black" stroke-width="0.5"/>
<rect x="320.25" y="45.4713" width="25.5" height="110.539" rx="1.75" fill="#B68A5A" stroke="black" stroke-width="0.5"/>
<path d="M345.61 46.3941H320.075C320.027 46.3941 319.98 46.3767 319.944 46.3451L307.071 35.1708L306.009 34.203C305.874 34.0799 305.961 33.8552 306.144 33.8552H319.955C319.985 33.8552 320.014 33.8617 320.041 33.8744L345.695 46.0133C345.888 46.1046 345.823 46.3941 345.61 46.3941Z" fill="#B68A5A"/>
<path d="M307 35.1091L307.071 35.1708M307.071 35.1708L319.944 46.3451C319.98 46.3767 320.027 46.3941 320.075 46.3941H345.61C345.823 46.3941 345.888 46.1046 345.695 46.0133L320.041 33.8744C320.014 33.8617 319.985 33.8552 319.955 33.8552H306.144C305.961 33.8552 305.874 34.0799 306.009 34.203L307.071 35.1708Z" stroke="black" stroke-width="0.5"/>
<rect x="175.25" y="4.01172" width="131.5" height="70.9719" rx="1.75" fill="#B68A5A" stroke="black" stroke-width="0.5"/>
<path d="M0.890335 45.1402H26.4253C26.4735 45.1402 26.5201 45.1228 26.5564 45.0912L39.429 33.9168L40.4908 32.9491C40.6258 32.826 40.5388 32.6013 40.3561 32.6013H26.545C26.5154 32.6013 26.4862 32.6078 26.4594 32.6205L0.804794 44.7594C0.611889 44.8507 0.676926 45.1402 0.890335 45.1402Z" fill="#B68A5A"/>
<path d="M39.5 33.8552L39.429 33.9168M39.429 33.9168L26.5564 45.0912C26.5201 45.1228 26.4735 45.1402 26.4253 45.1402H0.890333C0.676926 45.1402 0.61189 44.8507 0.804793 44.7594L26.4594 32.6205C26.4862 32.6078 26.5154 32.6013 26.545 32.6013H40.3561C40.5388 32.6013 40.6258 32.826 40.4908 32.9491L39.429 33.9168Z" stroke="black" stroke-width="0.5"/>
<rect x="0.25" y="45.4713" width="25.5" height="110.539" rx="1.75" fill="#B68A5A" stroke="black" stroke-width="0.5"/>
</svg>
