<svg width="150" height="44" viewBox="0 0 150 44" fill="none" xmlns="http://www.w3.org/2000/svg">
<path d="M10.5676 27.9901L11.1744 24.723C12.6834 24.723 13.998 24.6841 15.1182 24.6063C16.2383 24.513 17.164 24.3807 17.8951 24.2096C18.6419 24.0229 19.1942 23.7818 19.552 23.4862C19.9254 23.1906 20.1121 22.8328 20.1121 22.4127C20.1121 21.8527 20.0187 21.1837 19.832 20.4058C19.6454 19.6124 19.4042 18.8112 19.1086 18.0022L22.1657 17.1154C22.3679 17.6444 22.5624 18.2278 22.7491 18.8657C22.9357 19.4879 23.0835 20.118 23.1924 20.7559C23.3169 21.3782 23.3791 21.9616 23.3791 22.5061C23.3791 23.4706 23.1691 24.303 22.7491 25.003C22.329 25.6876 21.6289 26.2554 20.6488 26.7066C19.6842 27.1422 18.3774 27.4611 16.7283 27.6634C15.0793 27.8812 13.0257 27.9901 10.5676 27.9901ZM10.5443 27.9901C8.86409 27.9901 7.44059 27.8578 6.27378 27.5933C5.12254 27.3444 4.18131 26.9866 3.45012 26.5199C2.73448 26.0376 2.21331 25.4775 1.8866 24.8397C1.55989 24.2018 1.39654 23.5018 1.39654 22.7394C1.39654 22.2416 1.43544 21.7438 1.51322 21.2459C1.60657 20.7325 1.71547 20.2347 1.83993 19.7524C1.97994 19.2701 2.1044 18.8345 2.21331 18.4456L5.13031 19.1223C5.06809 19.4024 4.99808 19.7057 4.92029 20.0325C4.8425 20.3592 4.78027 20.6781 4.7336 20.9892C4.68693 21.2848 4.66359 21.5571 4.66359 21.806C4.66359 22.3816 4.86584 22.895 5.27033 23.3462C5.69038 23.7818 6.37491 24.124 7.32391 24.373C8.27291 24.6063 9.54861 24.723 11.151 24.723L11.6177 27.2433L10.5443 27.9901ZM14.3947 17.3255C13.9436 17.3255 13.5546 17.1699 13.2279 16.8587C12.9168 16.532 12.7612 16.1509 12.7612 15.7153C12.7612 15.2641 12.9168 14.8752 13.2279 14.5485C13.5546 14.2218 13.9436 14.0584 14.3947 14.0584C14.8303 14.0584 15.2037 14.2218 15.5149 14.5485C15.826 14.8752 15.9816 15.2641 15.9816 15.7153C15.9816 16.1509 15.826 16.532 15.5149 16.8587C15.2037 17.1699 14.8303 17.3255 14.3947 17.3255ZM10.3576 17.3021C9.90643 17.3021 9.5175 17.1466 9.19079 16.8354C8.87964 16.5087 8.72407 16.1276 8.72407 15.6919C8.72407 15.2408 8.87964 14.8518 9.19079 14.5251C9.5175 14.1984 9.90643 14.0351 10.3576 14.0351C10.7932 14.0351 11.1666 14.1984 11.4777 14.5251C11.7889 14.8518 11.9444 15.2408 11.9444 15.6919C11.9444 16.1276 11.7889 16.5087 11.4777 16.8354C11.1666 17.1466 10.7932 17.3021 10.3576 17.3021ZM24.929 32.8673L23.7388 29.8803C25.0768 29.4136 26.158 28.9002 26.9825 28.3401C27.8226 27.78 28.4372 27.1811 28.8261 26.5432C29.2306 25.9054 29.4328 25.2442 29.4328 24.5597C29.4328 24.124 29.3706 23.6729 29.2461 23.2062C29.1217 22.7239 28.9428 22.2183 28.7094 21.6893C28.4916 21.1604 28.2271 20.6081 27.916 20.0325L30.973 18.5623C31.5175 19.6046 31.9376 20.6003 32.2332 21.5493C32.5443 22.4983 32.6999 23.3851 32.6999 24.2096C32.6999 24.9719 32.5988 25.7031 32.3965 26.4032C32.2098 27.1033 31.9142 27.7567 31.5097 28.3634C31.1208 28.9857 30.6152 29.5691 29.9929 30.1136C29.3706 30.6581 28.6394 31.156 27.7993 31.6071C26.9592 32.0739 26.0024 32.4939 24.929 32.8673ZM41.5018 27.6167C40.0549 27.6167 38.9348 27.4689 38.1414 27.1733C37.3635 26.8777 36.819 26.4188 36.5079 25.7965C36.1967 25.1586 36.0178 24.3574 35.9711 23.3929L35.4811 10.418H38.7481L39.2382 21.8293C39.2693 22.545 39.3471 23.0817 39.4715 23.4395C39.596 23.7973 39.8294 24.0385 40.1716 24.1629C40.5294 24.2874 41.0506 24.3496 41.7351 24.3496C42.3263 24.3496 42.7464 24.5052 42.9953 24.8164C43.2598 25.1119 43.392 25.4853 43.392 25.9365C43.392 26.4188 43.2286 26.8233 42.9019 27.15C42.5752 27.4611 42.1085 27.6167 41.5018 27.6167ZM41.5335 27.6167L41.7669 24.3496C42.1247 24.3496 42.4281 24.2641 42.677 24.0929C42.9414 23.9062 43.2137 23.6029 43.4937 23.1828C43.7738 22.7472 44.1005 22.1638 44.4738 21.4326C44.9406 20.4992 45.4228 19.768 45.9207 19.239C46.4341 18.7101 46.9552 18.3367 47.4842 18.1189C48.0287 17.8855 48.5732 17.7689 49.1177 17.7689C49.8023 17.7689 50.4401 17.9167 51.0313 18.2122C51.6225 18.5078 52.1359 18.9123 52.5715 19.4257C53.0071 19.9236 53.3416 20.4992 53.5749 21.1526C53.8238 21.7904 53.9483 22.4516 53.9483 23.1362C53.9483 23.9607 53.7694 24.7074 53.4116 25.3764C53.0693 26.0298 52.587 26.551 51.9647 26.9399C51.358 27.3133 50.6579 27.5 49.8645 27.5C49.1955 27.5 48.4176 27.3833 47.5309 27.15C46.6441 26.9166 45.7107 26.4265 44.7305 25.6798L45.9207 22.8561C46.6208 23.3384 47.2742 23.6884 47.8809 23.9062C48.5032 24.124 49.0166 24.2329 49.4211 24.2329C49.7322 24.2329 49.9889 24.2018 50.1912 24.1396C50.3934 24.0774 50.5412 23.9763 50.6346 23.8362C50.7279 23.6962 50.7746 23.5095 50.7746 23.2762C50.7746 22.9495 50.6968 22.615 50.5412 22.2727C50.3857 21.9305 50.1756 21.6426 49.9112 21.4093C49.6622 21.1604 49.3666 21.0359 49.0244 21.0359C48.6977 21.0359 48.4176 21.1604 48.1843 21.4093C47.9665 21.6426 47.7487 21.9849 47.5309 22.4361C47.3286 22.8717 47.0797 23.3851 46.7841 23.9763C46.4263 24.6919 46.0763 25.2909 45.734 25.7731C45.3917 26.2399 45.0261 26.6132 44.6372 26.8933C44.2638 27.1577 43.8204 27.3444 43.307 27.4533C42.8092 27.5622 42.218 27.6167 41.5335 27.6167ZM54.5549 32.8906L53.3647 29.997C54.1893 29.7169 54.9438 29.3902 55.6283 29.0168C56.3284 28.6435 56.9351 28.2312 57.4485 27.78C57.9619 27.3289 58.3586 26.8388 58.6387 26.3099C58.9187 25.7654 59.0587 25.1819 59.0587 24.5597C59.0587 23.9062 58.9109 23.1906 58.6153 22.4127C58.3197 21.6349 57.9619 20.8414 57.5419 20.0325L60.5989 18.5623C60.8789 19.0446 61.1201 19.5657 61.3223 20.1258C61.5401 20.6703 61.719 21.1604 61.859 21.596C61.9991 22.0316 62.0924 22.3272 62.1391 22.4827C62.3569 23.2295 62.6525 23.7273 63.0258 23.9763C63.4148 24.2252 64.0371 24.3496 64.8927 24.3496C65.4839 24.3496 65.904 24.5052 66.1529 24.8164C66.4174 25.1119 66.5496 25.4853 66.5496 25.9365C66.5496 26.4188 66.3862 26.8233 66.0595 27.15C65.7328 27.4611 65.2661 27.6167 64.6594 27.6167C64.0215 27.6167 63.4615 27.5233 62.9792 27.3366C62.4969 27.15 62.108 26.8777 61.8124 26.5199C61.5323 26.1621 61.3534 25.742 61.2756 25.2597L62.1391 25.7498C62.0457 26.5743 61.7735 27.3522 61.3223 28.0834C60.8867 28.8302 60.3189 29.5147 59.6188 30.137C58.9187 30.7593 58.133 31.3038 57.2618 31.7705C56.3906 32.2372 55.4883 32.6106 54.5549 32.8906ZM59.3154 16.182C58.8331 16.182 58.4209 16.0186 58.0786 15.6919C57.7519 15.3652 57.5885 14.9607 57.5885 14.4785C57.5885 13.9962 57.7519 13.5839 58.0786 13.2417C58.4209 12.8994 58.8331 12.7283 59.3154 12.7283C59.7821 12.7283 60.1788 12.8994 60.5056 13.2417C60.8478 13.5839 61.0189 13.9962 61.0189 14.4785C61.0189 14.9607 60.8478 15.3652 60.5056 15.6919C60.1788 16.0186 59.7821 16.182 59.3154 16.182ZM64.6873 27.6167L64.9206 24.3496C65.2784 24.3496 65.5818 24.2641 65.8307 24.0929C66.0952 23.9062 66.3675 23.6029 66.6475 23.1828C66.9275 22.7472 67.2542 22.1638 67.6276 21.4326C68.0943 20.4992 68.5766 19.768 69.0744 19.239C69.5878 18.7101 70.109 18.3367 70.638 18.1189C71.1825 17.8855 71.727 17.7689 72.2715 17.7689C72.956 17.7689 73.5939 17.9167 74.185 18.2122C74.7762 18.5078 75.2896 18.9123 75.7252 19.4257C76.1608 19.9236 76.4953 20.4992 76.7287 21.1526C76.9776 21.7904 77.1021 22.4516 77.1021 23.1362C77.1021 23.9607 76.9231 24.7074 76.5653 25.3764C76.2231 26.0298 75.7408 26.551 75.1185 26.9399C74.5118 27.3133 73.8117 27.5 73.0182 27.5C72.3493 27.5 71.5714 27.3833 70.6846 27.15C69.7979 26.9166 68.8644 26.4265 67.8843 25.6798L69.0744 22.8561C69.7745 23.3384 70.4279 23.6884 71.0347 23.9062C71.657 24.124 72.1704 24.2329 72.5749 24.2329C72.886 24.2329 73.1427 24.2018 73.3449 24.1396C73.5472 24.0774 73.695 23.9763 73.7883 23.8362C73.8817 23.6962 73.9284 23.5095 73.9284 23.2762C73.9284 22.9495 73.8506 22.615 73.695 22.2727C73.5394 21.9305 73.3294 21.6426 73.0649 21.4093C72.816 21.1604 72.5204 21.0359 72.1781 21.0359C71.8514 21.0359 71.5714 21.1604 71.338 21.4093C71.1202 21.6426 70.9024 21.9849 70.6846 22.4361C70.4824 22.8717 70.2335 23.3851 69.9379 23.9763C69.5801 24.6919 69.23 25.2909 68.8878 25.7731C68.5455 26.2399 68.1799 26.6132 67.791 26.8933C67.4176 27.1577 66.9742 27.3444 66.4608 27.4533C65.963 27.5622 65.3718 27.6167 64.6873 27.6167ZM79.5997 32.8673L78.923 29.6002C80.0276 29.4602 80.9921 29.2891 81.8167 29.0869C82.6412 28.9002 83.3335 28.6357 83.8936 28.2934C84.4537 27.9512 84.8737 27.4844 85.1537 26.8933C85.4338 26.2865 85.5738 25.5087 85.5738 24.5597C85.5738 23.6418 85.4338 22.9106 85.1537 22.3661C84.8737 21.8216 84.5003 21.5493 84.0336 21.5493C83.7069 21.5493 83.4346 21.666 83.2168 21.8993C82.999 22.1171 82.8357 22.3816 82.7268 22.6928C82.6334 22.9884 82.5868 23.2528 82.5868 23.4862C82.5868 23.6262 82.6257 23.774 82.7034 23.9296C82.7812 24.0852 82.9524 24.2174 83.2168 24.3263C83.4813 24.4352 83.8936 24.4974 84.4537 24.513C85.0293 24.5285 85.8071 24.4741 86.7873 24.3496H90.7077C91.2989 24.3496 91.719 24.5052 91.9679 24.8164C92.2323 25.1119 92.3646 25.4853 92.3646 25.9365C92.3646 26.4188 92.2012 26.8233 91.8745 27.15C91.5478 27.4611 91.0811 27.6167 90.4744 27.6167H84.0569C83.0768 27.6167 82.2367 27.5 81.5366 27.2666C80.8366 27.0333 80.2998 26.6599 79.9265 26.1465C79.5531 25.6176 79.3664 24.9175 79.3664 24.0463C79.3664 23.3462 79.4831 22.6461 79.7164 21.946C79.9653 21.2459 80.3076 20.6081 80.7432 20.0325C81.1788 19.4413 81.6844 18.9746 82.2601 18.6323C82.8512 18.2745 83.4891 18.0956 84.1736 18.0956C85.1071 18.0956 85.9238 18.3834 86.6239 18.959C87.324 19.5346 87.8685 20.2969 88.2574 21.2459C88.6619 22.1949 88.8642 23.2295 88.8642 24.3496C88.8642 26.1076 88.4908 27.6011 87.744 28.8302C86.9973 30.0592 85.9316 31.0082 84.547 31.6772C83.1624 32.3617 81.5133 32.7584 79.5997 32.8673ZM100.005 27.6867C99.3051 27.6867 98.5816 27.6011 97.8349 27.43C97.1037 27.2589 96.3958 27.0022 95.7113 26.6599C95.0268 26.3176 94.4123 25.8898 93.8677 25.3764C93.3232 24.863 92.8876 24.2718 92.5609 23.6029C92.2498 22.9184 92.0942 22.1483 92.0942 21.2926C92.0942 20.5925 92.242 19.9469 92.5376 19.3557C92.8332 18.7645 93.2688 18.29 93.8444 17.9322C94.4356 17.5588 95.1512 17.3721 95.9913 17.3721C96.7848 17.3721 97.4693 17.5666 98.0449 17.9555C98.6361 18.3289 99.095 18.819 99.4217 19.4257C99.7484 20.0169 99.9118 20.6392 99.9118 21.2926C99.9118 22.3349 99.6551 23.2528 99.1417 24.0463C98.6283 24.8241 97.9204 25.4775 97.0181 26.0065C96.1313 26.5354 95.1279 26.9399 94.0078 27.22C92.8876 27.4844 91.7208 27.6167 90.5074 27.6167L90.7407 24.3496C91.6275 24.3496 92.3976 24.3263 93.051 24.2796C93.72 24.2329 94.2956 24.1318 94.7779 23.9763C95.2601 23.8207 95.6802 23.5873 96.038 23.2762C96.3958 22.965 96.6681 22.6228 96.8548 22.2494C97.057 21.8604 97.1581 21.4793 97.1581 21.1059C97.1581 20.857 97.1192 20.6236 97.0415 20.4058C96.9792 20.188 96.8703 20.0091 96.7148 19.8691C96.5747 19.7135 96.388 19.6357 96.1547 19.6357C95.9058 19.6357 95.6957 19.7135 95.5246 19.8691C95.369 20.0091 95.2446 20.1958 95.1512 20.4292C95.0734 20.6625 95.0346 20.9114 95.0346 21.1759C95.0346 21.7204 95.1746 22.2105 95.4546 22.6461C95.7502 23.0817 96.1391 23.4473 96.6214 23.7429C97.1037 24.0385 97.6326 24.2641 98.2083 24.4196C98.7994 24.5752 99.3984 24.653 100.005 24.653C100.487 24.653 100.83 24.5752 101.032 24.4196C101.234 24.2641 101.335 24.054 101.335 23.7896C101.335 23.6029 101.289 23.4084 101.195 23.2062C101.117 22.9884 100.939 22.7239 100.659 22.4127C100.379 22.1016 99.9507 21.7204 99.3751 21.2693C98.7994 20.8025 98.0294 20.2269 97.0648 19.5424C96.1002 18.8579 94.8868 18.0256 93.4244 17.0454L95.2212 14.5018C96.8703 15.6686 98.2472 16.6876 99.3517 17.5588C100.472 18.43 101.374 19.1924 102.059 19.8458C102.743 20.4992 103.264 21.0748 103.622 21.5726C103.996 22.0549 104.245 22.4983 104.369 22.9028C104.493 23.3073 104.556 23.7118 104.556 24.1163C104.556 24.863 104.377 25.5009 104.019 26.0298C103.661 26.5588 103.14 26.971 102.455 27.2666C101.786 27.5467 100.97 27.6867 100.005 27.6867Z" fill="#FAFAFA"/>
<path d="M133.689 0.582397C135.006 0.66929 136.217 0.59688 137.533 0.7417C138.678 0.880457 139.775 1.27718 140.741 1.90134C141.706 2.52549 142.514 3.36045 143.102 4.34194C145.615 8.14494 146.96 12.4099 147.924 16.7907C148.575 19.6086 149.058 22.4616 149.371 25.3352C150.015 31.5668 147.749 36.7724 141.581 39.7361C138.161 41.3842 134.701 42.8447 130.868 43.3074C129.37 43.5541 127.833 43.3847 126.427 42.8182C125.02 42.2518 123.801 41.3104 122.903 40.0989C119.571 35.9491 117.598 31.178 116.023 26.1896C114.714 22.2264 113.951 18.1069 113.754 13.9421C113.622 10.1978 115.274 7.40708 118.27 5.26735C122.186 2.47172 126.847 0.877683 131.672 0.683772C132.3 0.654808 132.929 0.611362 133.543 0.582397H133.689Z" fill="#FAFAFA"/>
<path d="M139.404 35.7319C139.58 32.3481 139.828 29.0665 139.887 25.7696C139.916 23.5973 138.601 22.2997 136.394 21.9239C133.894 21.5047 131.556 21.6929 129.481 23.7892C129.758 20.5069 130.021 17.4852 130.286 14.3621C128.591 14.3621 127.056 14.42 125.535 14.3476C124.613 14.3035 124.38 14.5779 124.35 15.4888C124.191 20.7089 123.971 25.9427 123.736 31.1628C123.663 32.666 123.503 34.1555 123.386 35.7898C124.979 35.7898 126.469 35.7319 127.946 35.8043C128.808 35.8477 128.97 35.5146 129.013 34.7485C129.064 32.8581 129.21 30.9714 129.452 29.0955C129.612 28.2585 129.978 27.4737 130.519 26.8109C130.836 26.4339 131.269 26.1694 131.751 26.0571C132.234 25.945 132.74 25.9911 133.194 26.1889C134.158 26.5357 134.377 27.4032 134.334 28.3141C134.261 29.7624 134.144 31.1917 134.041 32.6371C133.968 33.6508 133.866 34.6645 133.764 35.7311L139.404 35.7319Z" fill="#1F2A4A"/>
<path d="M140.514 12.2688C140.514 11.4158 140.485 10.7358 140.529 10.0711C140.587 9.69466 140.501 9.31016 140.287 8.99329C140.074 8.67642 139.748 8.44999 139.374 8.35861C137.036 7.47955 134.741 6.5107 132.403 5.61426C131.96 5.43677 131.469 5.41631 131.012 5.55633C128.515 6.5107 126.03 7.50852 123.56 8.52081C123.283 8.63667 122.917 8.95527 122.888 9.20002C122.814 10.1689 122.858 11.1551 122.858 12.2362C124.689 11.631 126.48 10.9164 128.223 10.0965C130.605 8.82421 132.783 8.96831 135.136 10.1544C136.787 10.9929 138.599 11.528 140.514 12.2688Z" fill="#1F2A4A"/>
</svg>
